<?xml version="1.0" encoding="UTF-8" standalone="no"?>
<!-- Created with Inkscape (http://www.inkscape.org/) -->

<svg
   xmlns:dc="http://purl.org/dc/elements/1.1/"
   xmlns:cc="http://creativecommons.org/ns#"
   xmlns:rdf="http://www.w3.org/1999/02/22-rdf-syntax-ns#"
   xmlns:svg="http://www.w3.org/2000/svg"
   xmlns="http://www.w3.org/2000/svg"
   xmlns:sodipodi="http://sodipodi.sourceforge.net/DTD/sodipodi-0.dtd"
   xmlns:inkscape="http://www.inkscape.org/namespaces/inkscape"
   width="210mm"
   height="297mm"
   viewBox="0 0 210 297"
   version="1.1"
   id="svg8"
   inkscape:version="0.92.3 (2405546, 2018-03-11)"
   sodipodi:docname="chamber_clock.svg">
  <defs
     id="defs2">
    <marker
       style="overflow:visible"
       refY="0.0"
       refX="0.0"
       orient="auto"
       id="DistanceX">
      <path
         id="path12"
         style="stroke:#000000; stroke-width:0.5"
         d="M 3,-3 L -3,3 M 0,-5 L  0,5" />
    </marker>
    <pattern
       y="0"
       x="0"
       width="8"
       patternUnits="userSpaceOnUse"
       id="Hatch"
       height="8">
      <path
         id="path15"
         stroke-width="0.25"
         stroke="#000000"
         linecap="square"
         d="M8 4 l-4,4" />
      <path
         id="path17"
         stroke-width="0.25"
         stroke="#000000"
         linecap="square"
         d="M6 2 l-4,4" />
      <path
         id="path19"
         stroke-width="0.25"
         stroke="#000000"
         linecap="square"
         d="M4 0 l-4,4" />
    </pattern>
    <symbol
       id="*Model_Space" />
    <symbol
       id="*Paper_Space" />
    <symbol
       id="*Paper_Space0" />
    <marker
       style="overflow:visible"
       refY="0.0"
       refX="0.0"
       orient="auto"
       id="DistanceX-2">
      <path
         id="path238"
         style="stroke:#000000; stroke-width:0.5"
         d="M 3,-3 L -3,3 M 0,-5 L  0,5" />
    </marker>
    <pattern
       y="0"
       x="0"
       width="8"
       patternUnits="userSpaceOnUse"
       id="Hatch-0"
       height="8">
      <path
         id="path241"
         stroke-width="0.25"
         stroke="#000000"
         linecap="square"
         d="M8 4 l-4,4" />
      <path
         id="path243"
         stroke-width="0.25"
         stroke="#000000"
         linecap="square"
         d="M6 2 l-4,4" />
      <path
         id="path245"
         stroke-width="0.25"
         stroke="#000000"
         linecap="square"
         d="M4 0 l-4,4" />
    </pattern>
    <symbol
       id="*Model_Space-2" />
    <symbol
       id="*Paper_Space-3" />
    <symbol
       id="*Paper_Space0-3" />
  </defs>
  <sodipodi:namedview
     id="base"
     pagecolor="#ffffff"
     bordercolor="#666666"
     borderopacity="1.0"
     inkscape:pageopacity="0.0"
     inkscape:pageshadow="2"
     inkscape:zoom="0.98994949"
     inkscape:cx="201.61289"
     inkscape:cy="788.80334"
     inkscape:document-units="mm"
     inkscape:current-layer="layer1"
     showgrid="false"
     inkscape:window-width="1920"
     inkscape:window-height="1017"
     inkscape:window-x="-8"
     inkscape:window-y="-8"
     inkscape:window-maximized="1" />
  <metadata
     id="metadata5">
    <rdf:RDF>
      <cc:Work
         rdf:about="">
        <dc:format>image/svg+xml</dc:format>
        <dc:type
           rdf:resource="http://purl.org/dc/dcmitype/StillImage" />
        <dc:title></dc:title>
      </cc:Work>
    </rdf:RDF>
  </metadata>
  <g
     inkscape:label="圖層 1"
     inkscape:groupmode="layer"
     id="layer1">
    <g
       id="g303"
       inkscape:label="0"
       transform="matrix(0.26458333,0,0,0.26458333,1.8532165,-73.424402)">
      <path
         id="path253"
         style="fill:none;stroke:#0000ff"
         d="m 294.39776,939.57825 -0.6164,2.84491 -1.07618,4.97429 -0.35058,1.63654 -0.13938,0.64657 -0.0776,0.34341 -0.0704,0.28018 -0.0158,0.10201 -0.0934,0.45979 -0.033,0.14799 -3.41246,15.77059 -2.36214,10.92074 -1.615,7.46761 -3.67683,17.00162 0.12356,0.01 -0.72559,3.3365 -1.19257,5.5189 -0.12356,0.569 -0.11064,0.2495 -0.40518,1.5435 -0.10058,1.0446 -0.046,0.2183 -0.81324,3.7573 -0.0216,0.1247 -1.20118,5.519 -0.12357,0.5848 -0.10201,0.2337 -0.38938,1.4735 -0.0158,0.07 -0.14943,1.5356 0.0474,0.5302 0.079,0.9509 0.38795,1.3641 0.63364,1.2007 0.85491,0.9822 0.81324,0.569 0.24139,0.1638 0.48995,0.265 -0.0158,0.1013 -0.0532,0.2417 -0.46122,2.1359 h -0.009 l -17.48328,-9.2062 0.19397,-0.9042 0.0474,-0.195 0.0144,-0.086 0.96842,-0.3117 1.30895,-0.7327 1.2098,-0.9745 1.05895,-1.1926 0.87215,-1.3641 0.0704,-0.156 0.58479,-1.3252 0.40662,-1.5436 0.0532,-0.5688 0.0244,-0.2806 0.0618,-0.2964 1.80035,-8.3019 0.14799,-0.7172 0.273,-1.2317 0.23276,-1.0835 0.14225,-0.6782 0.54455,-2.4945 0.0546,-0.1402 0.41237,-1.5358 0.056,-0.569 0.0244,-0.3042 0.0618,-0.2961 3.54608,-16.3778 3.11935,-14.45173 0.62215,-2.87652 h -0.0244 l 2.70698,-12.48026 -3.3047,4.79324 -3.55614,5.16826 -10.53049,15.30234 -7.1166,10.33652 -9.2704,13.47795 -1.69114,2.4478 -0.38219,0.5612 -1.35637,1.9722 -0.30317,0.6861 -0.29598,0.6703 -0.0632,0.2339 -0.148,0.5769 -0.19541,0.7249 -0.14799,1.5436 0.12644,1.4888 0.21696,0.7484 0.17099,0.6081 0.63938,1.2003 0.49858,0.5769 0.35921,0.4131 0.73996,0.5145 -0.0618,0.07 -0.35059,0.3585 -0.21696,0.2261 -0.61783,-0.3274 -1.50436,-0.7873 -9.93852,-5.2385 -0.0848,0.1714 -0.13363,0.2495 -0.61496,-0.3275 -0.38363,-0.2024 -12.04347,-6.3455 v 0.01 l -0.69973,-0.3742 -0.29742,-0.1559 -12.30067,-6.47776 0.6164,-1.13811 0.0216,-0.047 0.46984,0.047 1.11354,-0.14828 1.11497,-0.39757 1.09199,-0.63134 0.99716,-0.84198 0.89658,-1.02891 0.48277,-0.76396 0.24857,-0.38967 v -0.008 l 11.35954,-21.15653 3.09492,-5.76871 7.23442,-13.47023 v -0.007 l 4.12225,-7.67839 0.009,-0.009 0.0158,-0.0388 1.04314,-1.94115 4.17972,-7.78759 5.08205,-9.46293 0.009,-0.007 0.55175,-1.25578 0.14799,-0.53019 0.21265,-0.76296 0.13937,-1.3032 -0.0704,-1.23854 -0.29743,-1.14659 -0.49857,-0.99715 -0.30317,-0.35921 0.0618,-0.12356 0.21121,-0.3822 0.54456,-1.0144 0.14799,-0.28736 0.20403,0.10919 4.17829,2.20553 8.66118,4.56048 v -0.009 l 4.67543,2.46416 8.63101,4.54468 h -0.009 l -0.5618,1.06037 -0.25001,0.45117 -0.0532,0.1092 -1.03883,-0.1092 -1.11353,0.14799 -1.1236,0.398 -1.07475,0.63077 -1.00577,0.84198 -0.88796,1.02158 -0.49858,0.77157 -0.24139,0.39082 -8.06921,15.03638 -2.25294,4.19409 -0.007,0.007 -4.12369,7.68702 v 0.007 l -7.23442,13.47053 v 0.008 l -3.09492,5.76067 -11.35667,21.15637 -0.56323,1.2551 -0.14656,0.5378 -0.20977,0.764 -0.14225,1.3017 0.0776,1.2394 0.0402,0.1561 v 0.015 l 0.0862,0.047 1.20119,0.4523 1.26153,0.148 h 0.0316 l 1.36498,-0.1402 1.35493,-0.4523 1.30895,-0.7249 1.2098,-0.9821 0.93538,-1.0525 -0.069,-0.047 36.02839,-52.35316 1.38079,-2.01155 0.94112,-1.37217 0.0776,-0.1092 0.28162,-0.41237 1.65235,-2.38513 2.63513,-3.83489 0.023,-0.10201 0.20403,-0.2888 0.21696,-0.31179 4.3349,-6.30623 h 0.009 l 3.17251,1.66815 0.0991,0.0546 0.29023,0.148 2.18254,1.15377 z"
         inkscape:connector-curvature="0" />
      <path
         id="path255"
         style="fill:none;stroke:#0000ff"
         d="m 583.21256,992.64078 0.14943,0.21063 0.83336,0.88078 0.28736,0.30403 1.26297,0.94328 1.37217,0.68608 1.41096,0.38967 1.40378,0.0779 1.34774,-0.22615 1.22561,-0.53005 0.51295,-0.29613 0.0776,0.0701 1.02158,0.98221 0.77158,0.74054 -13.79784,8.08373 -4.06765,2.3776 -0.53881,-0.5145 -0.28736,-0.2806 -0.0704,-0.062 0.25576,-1.0132 0.007,-0.1482 0.0948,-1.3875 -0.18822,-1.5903 -0.44254,-1.5748 -0.71123,-1.48879 -0.92532,-1.36398 -1.1236,-1.18495 -0.46696,-0.35087 -0.2572,-0.18693 -0.33621,-0.3276 -0.7802,-0.74054 -0.51438,-0.49111 -2.96992,-2.8531 -4.37226,-4.19366 -1.36498,-1.30191 -0.80175,-0.77172 -0.10202,-0.14813 -1.12359,-1.1772 -0.46697,-0.35058 -0.273,-0.2105 -1.61212,-1.54343 -0.43823,-0.42114 -8.26318,-7.92768 -2.25294,-2.1594 -2.56473,-2.46373 -2.26731,-2.16673 -5.03608,-4.83348 -3.2113,-3.07912 -0.0158,0.009 -3.4297,-3.29033 -5.98725,-5.74442 2.46991,5.74442 2.41099,5.59787 0.32759,0.76296 19.11409,44.38688 0.77732,1.8085 0.45404,1.0523 0.95692,2.2295 0.42961,0.6314 0.42961,0.6236 1.11498,1.1772 1.27734,0.9509 1.36498,0.6783 1.04314,0.2883 0.36783,0.1015 1.41096,0.086 1.34056,-0.2339 0.87215,-0.382 0.0244,0.1012 0.11781,0.4911 0.007,0.024 0.0704,0.2961 -11.28195,6.6104 -0.85491,0.4989 -2.40955,1.403 -3.32051,1.9489 -0.60921,-2.5413 1.38797,-0.8106 0.53019,-0.312 0.76439,-0.4519 h 0.009 l 1.06756,-0.8187 0.86354,-1.0599 0.6322,-1.2786 0.37357,-1.4265 0.0776,-1.2706 0.0158,-0.2728 -0.17961,-1.5824 -0.39656,-1.3876 -0.0862,0.031 -2.37651,-5.519 -19.83968,-46.07068 -3.46131,-8.04478 -2.40812,-5.59644 -0.46122,-1.06756 -1.31614,-3.05613 -0.77876,-1.80896 -0.0718,-0.0776 -0.14799,-0.3276 -0.25719,-0.60059 -0.3276,-0.77157 -0.38076,-0.88796 -0.13362,-0.30461 -2.14374,-4.98003 5.87086,-3.44695 0.148,0.14081 3.43688,3.29752 1.11498,1.07618 0.17242,0.15517 2.26012,2.17536 0.62359,0.59197 0.18678,0.1796 0.15518,0.1638 0.0618,0.0474 0.36783,0.35058 1.77735,1.70695 4.36508,4.18547 14.11681,13.54064 1.24716,1.19257 2.26156,2.16673 1.32476,1.27159 0.80462,0.77158 8.68992,8.34077 1.36498,1.30176 2.78169,2.67379 0.0704,-0.1013 5.00446,4.80173 1.02158,0.98221 0.3822,0.36639 0.70979,0.67833 0.15518,0.22586 0.11638,0.12487 1.0144,1.06023 0.85778,0.64686 0.21697,0.20288 0.50719,0.4911 0.6006,0.57674 0.19541,0.17932 4.06046,3.89768 0.82618,0.79499 0.8506,0.81856 0.44398,0.42861 z"
         inkscape:connector-curvature="0" />
      <path
         id="path257"
         style="fill:none;stroke:#0000ff"
         d="m 379.48224,962.10623 v 1.87075 l -1.00434,0.40662 -0.9598,0.66237 -0.82617,0.88796 -0.68681,1.09199 -0.50576,1.23854 -0.32041,1.342 -0.069,0.95836 -0.0316,0.44398 v 77.9919 l 0.10058,1.4032 0.29742,1.2549 0.023,0.086 0.50576,1.2473 0.68681,1.0836 0.0934,0.1013 0.0244,0.031 h 0.94255 l 1.33194,-0.1636 0.398,-0.1561 0.88221,-0.3273 1.17676,-0.7796 1.02733,-1.0446 0.0489,-0.078 0.79457,-1.2003 0.6322,-1.4656 0.3434,-1.3953 -0.0948,-0.015 0.51295,-4.5135 5.97288,-52.73508 0.81037,-7.16401 0.22558,-1.95638 0.31179,-2.78313 0.1638,-1.442 0.70979,-6.268 -0.023,-0.0848 0.007,-0.0704 0.0402,-0.31179 0.069,-0.63221 0.0948,-0.81755 0.046,-0.38219 0.7098,-6.30623 h 6.78181 l 2.6337,8.97197 0.15518,0.55361 0.30604,1.02115 0.0532,0.24167 0.0402,0.0858 0.13938,0.47559 1.36498,4.64597 3.33487,11.36544 1.80178,6.14257 1.42677,4.8409 0.35777,1.2239 1.52878,5.2229 0.31035,1.0601 1.48999,5.0826 0.15518,0.5144 3.37654,11.5058 0.1092,-0.047 0.53737,1.8397 2.1265,7.2729 0.11064,0.3664 0.023,0.2884 0.38938,1.5825 0.42961,0.9822 0.0862,0.2962 0.20259,0.7017 0.50576,1.7228 0.26438,0.9197 0.1796,0.5925 1.06038,3.6326 0.59197,2.0111 0.11063,0.3664 0.0244,0.2961 0.38794,1.5748 0.62359,1.4578 0.4842,0.7325 0.36496,0.5536 1.0302,1.0444 1.17676,0.7876 1.27734,0.4753 1.32619,0.1639 h 0.59197 l 0.72703,2.4945 h -20.64286 l -0.21122,-0.7095 -0.11638,-0.3819 -0.023,-0.094 0.73135,-0.7483 0.8506,-1.2784 0.62214,-1.4578 0.21122,-0.8497 0.1796,-0.7325 0.125,-1.645 -0.125,-1.6525 -0.39082,-1.5825 -0.22558,-0.5378 -0.14656,-0.3273 -0.14799,-0.5225 -1.1236,-3.8196 -0.51582,-1.754 -2.43829,-8.3174 -0.11782,-0.3976 -0.007,-0.1716 -0.38938,-1.5823 -0.0546,-0.1248 -0.17098,-0.4132 -0.12644,-0.2884 -1.28453,-4.3888 -5.52746,-18.8255 -2.73572,-9.30763 v -0.008 l -0.49139,-1.67591 -0.0158,0.0155 -2.68973,-9.15157 -0.94256,-3.23501 -0.056,-0.17946 -0.0215,0.17946 -1.26297,11.1627 -0.10201,0.91195 -5.66828,49.99897 -0.20834,1.8631 -0.27443,2.3931 0.0618,0.7641 0.0647,0.7562 0.0991,0.4208 0.28162,1.1614 0.43679,1.0134 0.18823,0.4444 0.84772,1.2785 0.80462,0.8263 0.22559,0.226 1.17676,0.7874 1.27733,0.4755 0.944,0.1169 -0.007,0.047 -0.25,0.8342 h -15.07661 v 0.4834 h -15.70019 v -1.372 l 0.46122,-0.1794 0.94974,-0.6626 0.84342,-0.8886 0.67818,-1.0836 0.51438,-1.2473 0.0158,-0.086 0.29599,-1.2549 0.10201,-1.4032 v -77.99195 l -0.0331,-0.44398 -0.069,-0.95836 -0.3118,-1.342 -0.51438,-1.23854 -0.67818,-1.09199 -0.84342,-0.88796 -0.94974,-0.66237 -0.46122,-0.18823 v -2.08914 h 15.70019 z"
         inkscape:connector-curvature="0" />
      <path
         id="path259"
         style="fill:none;stroke:#0000ff"
         d="m 55.363212,703.03084 v -20.57246 l 0.834077,0.24282 1.652636,0.48278 v 3.09348 l 0.155752,1.32763 0.194977,0.51294 0.288371,0.75577 0.779478,1.1782 1.044715,1.02877 1.278344,0.84198 1.410962,0.59915 0.0546,0.0244 1.574616,0.38938 0.296274,0.023 0.36639,0.10201 7.764029,2.27737 0.335355,0.092 0.787236,0.23564 0.678038,0.19253 0.296417,0.0948 0.982214,0.42099 1.582232,0.38076 0.272853,0.0244 0.36639,0.10919 3.188315,0.93538 8.12266,2.37651 0.07802,0.0244 8.449969,2.47134 0.997731,-0.29598 5.004747,-1.45838 3.7027,-1.08337 3.45341,-1.0144 7.5146,-2.1969 -0.008,-0.0244 12.36331,-3.61505 3.10254,-0.90664 6.32964,-1.8535 0.37501,-0.11064 0.26438,-0.023 1.58194,-0.38219 1.45838,-0.62933 1.27878,-0.84342 1.05175,-1.02158 0.77158,-1.16958 0.48421,-1.27015 0.16236,-1.32619 v -0.36495 l 2.21415,-0.64801 v 20.57246 l -0.63077,0.17961 -0.0316,0.0158 -0.91957,-0.90376 -1.27877,-0.84198 -1.45694,-0.62502 -1.57476,-0.38938 -1.65235,-0.12501 -1.64517,0.12501 -1.57476,0.38938 -0.24138,0.10201 -0.30461,0.13219 -0.273,0.11638 -4.38849,1.28021 -3.10254,0.91239 -2.15136,0.62933 -6.06484,1.77017 -5.83854,1.71413 -0.98221,0.29024 4.84871,1.41096 4.06119,1.19113 6.78986,1.98713 0.75605,0.21983 4.38103,1.28452 0.2888,0.12644 0.53737,0.22559 1.44258,0.35058 0.13937,0.0331 1.64516,0.13075 1.63655,-0.13075 1.59056,-0.38363 0.009,-0.009 1.44976,-0.61352 1.27015,-0.8506 1.05176,-1.0302 0.66381,-0.98998 0.11638,-0.1796 0.2572,-0.67818 0.14081,0.0402 0.24138,0.0704 0.79457,0.23277 v 17.54795 h 0.009 v 15.87835 h -1.87075 l -0.398,-1.02014 -0.66238,-0.9598 -0.64657,-0.62215 -0.24282,-0.22845 -1.08337,-0.69255 -1.23854,-0.51439 -1.34918,-0.31035 -1.39516,-0.11064 H 63.516908 l -1.395301,0.11064 -1.348605,0.31035 -1.239405,0.51439 -0.787236,0.5072 -0.296274,0.18535 -0.249433,0.23563 -0.6391,0.61497 -0.662807,0.9598 -0.397426,1.02014 h -1.15377 v -15.87835 h 0.01566 v -17.55657 l 0.701602,-0.20116 0.38981,-0.11782 0.08549,-0.0216 0.748443,0.73278 0.912096,0.59772 0.366391,0.24426 1.457659,0.62215 1.57476,0.38938 1.644734,0.13362 1.652493,-0.13362 1.57476,-0.38938 0.545563,-0.23277 0.288514,-0.12644 3.632582,-1.05894 0.740683,-0.2184 1.753789,-0.51438 2.775084,-0.81037 5.518989,-1.61499 0.389955,-0.11495 0.187074,-0.0158 1.58252,-0.38363 0.537803,-0.23277 0.27271,-0.11638 3.102536,-0.91382 1.286246,-0.37358 2.790746,-0.81755 0.179316,-0.0489 -2.307398,-0.67531 -4.357603,-1.27159 -0.311791,-0.13363 -0.530045,-0.2342 -1.590278,-0.38938 -0.670423,-0.0532 -0.264951,-0.0776 -5.916702,-1.73281 -3.047937,-0.88796 -3.27395,-0.95692 -1.099172,-0.32185 -0.28837,-0.12357 -0.545707,-0.2342 -1.574616,-0.3822 -1.65278,-0.13219 -1.644734,0.13219 -0.413087,0.10058 -1.16153,0.28162 -1.457659,0.62358 -1.278343,0.84916 -0.467831,0.45404 -0.350729,0.34053 -0.233915,0.22702 -0.779478,1.16957 -0.475589,1.27734 -0.116957,0.94399 -0.0467,-0.0158 -0.834077,-0.24139 z"
         inkscape:connector-curvature="0" />
      <path
         id="path261"
         style="fill:none;stroke:#0000ff"
         d="m 659.56689,832.67414 13.45443,7.84219 h 0.009 l 5.74442,3.35068 21.12565,12.3179 1.25578,0.60778 1.31613,0.40518 1.32619,0.17242 1.27878,-0.0546 1.17676,-0.28161 0.71697,-0.3434 0.3276,-0.1638 0.84916,-0.67818 0.009,0.009 0.23277,0.13075 0.5072,0.29742 0.25001,0.14799 -0.36783,0.63939 -0.17098,0.29742 -7.2962,12.82367 -7.41402,13.0162 -0.99716,-0.24139 -0.11063,-0.0316 -0.092,-0.0215 -0.27299,-1.0144 -0.67819,-1.38079 -0.94399,-1.28452 -1.17532,-1.13797 -0.30461,-0.21121 -1.05176,-0.72416 -1.48136,-0.71841 -1.55321,-0.45979 -0.58335,-0.0618 -0.31179,-0.0402 -0.31898,-0.0776 -7.16401,-1.73856 -1.53597,-0.37213 -0.40662,-0.10202 -1.24716,-0.30604 -0.77014,-0.18535 -0.31323,-0.069 -0.37357,-0.0948 -2.86072,-0.69399 -0.13219,-0.0704 -1.55896,-0.4526 -0.57616,-0.069 -0.30604,-0.0331 -0.3276,-0.0833 -2.49433,-0.60922 -4.66968,-1.13078 -9.4227,-2.29173 -3.46275,-0.84199 -3.02308,-0.73134 -11.08511,-2.69836 v 0.023 l -12.66848,-3.07911 9.87817,7.37378 28.8026,21.52508 10.13393,7.5692 3.7731,2.82192 0.95836,0.71554 0.70261,0.33622 0.47415,0.22558 0.20403,0.0934 0.72416,0.21696 0.82617,0.24426 1.57476,0.17673 1.52016,-0.0991 1.23136,-0.32185 0.18823,-0.0532 1.26297,-0.63939 1.05175,-0.87359 0.56899,-0.77013 0.069,0.0704 0.22846,0.24857 0.3434,0.35777 -0.3434,0.59197 -0.60921,1.06756 -0.24139,0.42099 -8.23157,14.46883 -0.88221,1.54459 -1.45694,-1.54459 -0.28162,-0.30317 -0.046,-0.0474 0.35921,-0.63077 0.74858,-1.31038 0.44254,-0.7802 0.0948,-0.23276 0.42818,-1.02159 0.22558,-1.35492 -0.0848,-1.41959 -0.38938,-1.42677 -0.67818,-1.38653 -0.94256,-1.2874 -0.0402,-0.0302 -0.99716,-0.96698 -0.0618,0.069 -51.84784,-38.74256 -3.51447,-2.62508 -1.467,-1.09199 -0.0374,-0.0244 -5.01308,-3.75012 -0.10202,-0.0287 -0.25719,-0.19541 -0.0374,-0.0244 -0.3592,-0.27156 -6.19703,-4.6237 3.39091,-5.95564 3.20268,0.77876 5.37229,1.31182 1.00578,0.24139 0.82617,0.20115 0.17817,0.0402 0.2888,0.0848 0.11782,0.0172 0.45116,0.10776 0.23277,0.0632 26.98932,6.56342 7.5692,1.84057 5.63523,1.37073 1.70551,0.41237 8.7948,2.13512 1.09774,0.27444 0.0158,-0.12357 3.70413,0.89514 5.26022,1.27734 0.58478,0.14224 0.2572,0.12357 1.56039,0.4526 1.08336,0.13219 0.23421,0.056 3.78028,0.91957 0.44398,0.10776 5.26309,1.27878 0.59772,0.14799 0.24426,0.11782 0.69255,0.20116 0.86641,0.25001 1.57332,0.18678 0.0388,-0.007 1.4828,-0.0948 0.45835,-0.11495 0.95836,-0.25719 1.26297,-0.64082 0.24139,-0.20116 -0.0302,-0.10201 -0.59197,-1.15377 -0.49139,-0.63796 -0.3276,-0.42098 -0.99716,-0.95262 -0.14224,-0.0934 -1.01153,-0.70117 -0.009,-0.007 -21.1242,-12.30928 -5.74587,-3.35211 v 0.007 l -13.45443,-7.85081 -7.67121,-4.47284 -0.0316,-0.009 -2.0173,-1.1782 -7.46143,-4.34783 -9.68851,-5.65103 h -0.009 l -0.29742,-0.148 -0.95692,-0.46122 -1.31757,-0.40518 -0.53881,-0.069 -0.77876,-0.10201 -1.27878,0.0532 -1.18538,0.28162 -1.04313,0.49857 -0.38938,0.3118 -0.11782,-0.0704 -0.37501,-0.21696 -1.22418,-0.71841 -0.0848,-0.046 0.0848,-0.14799 7.20999,-12.66705 0.53881,-0.944 1.45694,0.84917 0.16667,0.0948 -0.16667,1.07474 0.0948,1.16958 0.35059,1.17819 0.60059,1.14515 0.81037,1.06757 1.00578,0.95117 1.15377,0.79457 v 0.009 l 5.97863,3.4843 13.21304,7.70282 7.6784,4.46565 v 0.009 -0.009 z"
         inkscape:connector-curvature="0" />
      <path
         id="path263"
         style="fill:none;stroke:#0000ff"
         d="m 241.27402,973.2774 7.23298,-13.47009 v -0.009 l 4.13087,-7.6784 v -0.007 l 0.0244,-0.0546 1.03595,-1.92535 4.18691,-7.79477 5.07487,-9.45575 v -0.009 l 0.56036,-1.25435 0.3592,-1.30176 0.0374,-0.30461 0.11064,-0.98997 -0.0862,-1.23854 -0.28737,-1.14659 -0.49858,-0.99716 -0.10201,-0.11782 -0.20403,-0.24138 0.0488,-0.0776 -0.72703,-0.0776 -1.11354,0.14799 -0.11782,0.046 -0.99716,0.35059 -1.09198,0.6322 -1.00578,0.84198 -0.88796,1.02014 -0.73278,1.1624 -8.06777,15.03637 -1.6308,3.03314 -0.59916,1.12216 -0.0316,0.0474 h -0.007 l -4.11507,7.68557 h -0.009 l -7.22579,13.47742 -3.09492,5.76914 -11.35954,21.15625 -0.56037,1.26297 -0.35777,1.294 -0.0316,0.31165 -0.10919,0.98997 0.069,1.2396 0.29743,1.146 0.50001,0.9977 0.46697,0.5457 0.023,-0.031 0.009,-0.031 0.0158,-0.023 0.3118,0.039 0.15517,0.015 1.11498,-0.1483 1.12216,-0.3975 1.07618,-0.6314 1.01296,-0.8419 0.88796,-1.029 0.73278,-1.1536 0.007,-0.01 11.35954,-21.15658 3.08773,-5.76066 0.007,-0.008 h -0.007 z"
         inkscape:connector-curvature="0" />
      <path
         id="path265"
         style="fill:none;stroke:#0000ff"
         d="m 185.43469,584.80743 -0.36639,0.63939 -7.88817,13.85243 -0.63939,1.12216 -1.25435,2.20696 -1.1236,-1.18538 0.58479,-1.02158 0.90376,-1.58195 0.36639,-0.64657 0.4368,-0.77301 0.51438,-1.23136 0.21122,-1.34056 -0.0934,-1.40378 -0.398,-1.41814 -0.68536,-1.37073 -0.944,-1.27159 -1.00578,-0.97417 -0.16379,-0.15662 h -0.007 l -0.22558,-0.16379 -0.42099,-0.43536 -1.61355,-1.70839 -0.48421,-0.49857 -0.546,-0.57761 -1.14515,-1.21412 -8.25456,-8.68561 -3.43832,-3.62367 0.0158,-0.009 -0.61639,-0.65375 -0.86497,-0.90377 -3.39091,-3.57913 -2.10495,-2.21415 -0.0316,-0.0388 -0.0388,-0.007 -2.75152,-0.67819 -1.38798,-0.3434 -1.06756,-0.26581 v 0.0244 l -3.8119,-0.944 -2.00293,-0.49139 -4.84124,-1.19975 -10.18824,-2.51876 -5.29312,-1.30894 -0.59226,-0.14943 -0.24167,-0.11495 -1.55925,-0.46122 -0.85749,-0.10058 -0.21826,-0.0316 -0.24153,-0.0532 -3.41447,-0.8506 -0.7483,-0.18823 -2.81402,-0.69398 -0.29627,-0.069 -2.17478,-0.53737 -0.59255,-0.148 -0.24943,-0.11781 -0.78724,-0.24139 -0.047,-0.007 -0.71698,-0.21839 -1.56685,-0.18679 -1.52016,0.0848 -1.410824,0.36639 -1.247308,0.62358 -0.459928,0.3822 -0.576885,0.47559 -0.795139,1.06756 -0.288371,0.5072 -0.101296,-0.023 -0.335211,-0.0862 -2.073626,-0.5072 2.073626,-3.65528 8.075962,-14.17285 0.98997,0.24283 0.1092,0.0302 0.0934,0.0244 0.28851,1.00577 0.68594,1.37074 0.94328,1.27159 0.88867,0.86496 0.28823,0.26438 0.80304,0.5618 0.54571,0.3822 1.48108,0.70979 1.55119,0.45978 0.57689,0.069 0.28061,0.0316 0.34297,0.0862 2.97006,0.73278 5.66713,1.40234 h 0.0155 l 2.54921,0.6322 3.04004,0.75577 0.38981,0.0934 0.14023,0.0632 1.54358,0.46697 0.5845,0.0704 0.30418,0.0316 0.32731,0.0862 6.86788,1.69833 0.1796,0.0388 -1.65307,-1.73712 -0.36639,-0.38363 -1.17719,-1.24717 -1.57447,-1.65953 -0.19498,-0.26581 -0.35087,-0.47559 -1.16915,-1.12072 -0.50676,-0.35203 -0.0467,-0.0316 -1.82419,-1.92534 -2.27608,-2.39375 -0.1092,-0.11495 -0.56912,-0.60059 -3.40657,-3.58632 -1.08351,-1.14515 -0.50677,-0.53881 -0.17917,-0.24138 -0.35087,-0.46697 -1.16915,-1.13222 -1.16943,-0.81037 -0.18693,-0.12357 -1.34085,-0.64801 -0.14038,-0.0704 -0.56912,-0.1638 -0.98222,-0.29455 -1.56671,-0.18822 -1.52002,0.0862 -1.40335,0.36639 -1.25506,0.62358 -0.50663,0.41237 -0.53004,0.44541 -0.56913,0.75578 -0.07,-0.0718 -0.35087,-0.37213 -0.2184,-0.22558 0.30418,-0.53163 0.84973,-1.48855 8.52799,-14.9904 0.46769,-0.81899 1.48898,1.56758 0.25719,0.27299 0.0467,0.046 -0.35863,0.62502 -0.37415,0.65376 -0.35863,0.63938 -0.44413,0.77158 -0.47558,1.13797 -0.0312,0.0862 -0.21826,1.34056 0.1013,1.41096 0.39757,1.41097 0.67804,1.38079 0.95117,1.26871 1.16915,1.13222 0.23391,0.15518 0.41338,0.44541 1.62131,1.69833 0.42085,0.4526 0.49111,0.5072 0.59254,0.63077 2.32292,2.44835 0.21049,0.21696 0.56123,0.59341 0.49886,0.52875 0.20274,0.21121 0.008,0.009 0.63924,0.86353 1.16943,1.1236 0.24168,0.17098 0.41308,0.42961 1.45766,1.53453 0.1559,0.17099 2.27622,2.39375 0.78723,0.82617 1.06799,1.13078 2.21343,2.33053 3.01734,3.17395 3.1021,3.27309 h 0.009 l 0.28018,0.069 0.7098,0.1796 5.02745,1.23998 3.7185,0.91957 3.49149,0.8664 7.56201,1.86931 v -0.0302 l 7.4212,1.84057 8.66837,2.14231 0.31897,0.079 4.17829,1.02877 1.1236,0.28018 0.58478,0.14799 0.24857,0.11639 0.85779,0.25863 0.69399,0.20115 1.56613,0.18822 1.51298,-0.0862 1.41096,-0.36496 1.24717,-0.62502 1.04457,-0.85778 0.79456,-1.06038 0.17961,-0.31897 0.31897,0.0776 0.22702,0.0546 1.69114,0.42099 -1.56757,2.76014 -3.5777,6.29186 -5.00446,8.77613 -0.53737,-0.13219 -0.10202,-0.0316 -0.0388,-0.007 -0.35059,-1.23998 -0.2342,-0.47559 -0.45116,-0.89658 -0.944,-1.27734 -1.17675,-1.12359 -1.34918,-0.93394 -1.47993,-0.71841 -1.55177,-0.45979 -0.57617,-0.069 -0.3276,-0.0402 -0.32041,-0.0776 -5.23866,-1.29314 -1.83914,-0.46122 -2.27593,-0.56036 -6.09645,-1.50579 -2.9067,-0.72416 -1.59919,-0.39082 -2.34633,-0.58479 1.59775,1.68396 1.87218,1.97133 0.47559,0.50001 0.0618,0.0718 2.38513,2.5087 6.9528,7.32781 1.57476,1.65953 0.20259,0.26581 0.35203,0.47416 1.16814,1.12359 0.16379,0.11639 1.19257,0.82761 1.48137,0.70835 0.4526,0.14081 1.09917,0.32616 1.56614,0.18823 1.51297,-0.0934 1.41097,-0.35777 1.24716,-0.62502 0.5618,-0.45835 0.1092,0.10777 0.35058,0.36639 0.39657,0.42099 z"
         inkscape:connector-curvature="0" />
      <path
         id="path267"
         style="fill:none;stroke:#0000ff"
         d="m 217.48164,446.77738 -0.1638,-0.2342 -1.11498,-1.17676 -0.88077,-0.671 -0.2026,-0.19541 -0.50719,-0.49139 -0.56899,-0.54456 -0.21696,-0.21984 -3.9915,-3.84925 -1.0302,-0.98279 -0.63795,-0.62358 -0.148,-0.13937 -0.28161,-0.273 -0.17099,-0.25001 -1.11641,-1.17676 -1.14515,-0.85922 -0.10776,-0.0848 -1.35636,-0.68537 -1.39516,-0.39081 -1.38941,-0.0862 -1.32475,0.21983 -1.21556,0.52157 -0.49858,0.2888 -0.0776,-0.0776 -0.35203,-0.33621 -0.63795,-0.6164 -0.78881,-0.76152 9.14395,-5.35648 4.53031,-2.64951 3.92972,-2.29892 0.81755,0.79313 0.0618,0.0618 -0.24858,1.00578 -0.0862,1.42677 v 0.10201 l 0.18678,1.57476 0.45117,1.56614 0.7026,1.48855 0.92819,1.3578 1.10636,1.17676 0.45978,0.34915 0.25001,0.1796 1.19113,1.16239 0.44541,0.42099 2.93113,2.82911 2.07334,1.99575 2.24575,2.16674 2.17536,2.09776 0.0934,0.13937 1.11354,1.1782 0.4684,0.35058 0.26438,0.2026 0.58479,0.56179 0.53737,0.52157 0.50002,0.48421 0.25719,0.24139 3.43832,3.3205 0.13219,0.13219 -0.67962,-2.82192 -0.87215,-3.60931 -0.0848,-0.34196 -0.0316,-0.29743 -0.0704,-0.57616 -0.4526,-1.56614 -0.28018,-0.59341 -1.01296,-4.20846 -0.3276,-1.33338 -0.1796,-0.75577 -0.33622,-1.3736 -1.40234,-5.79903 -0.0776,-0.35058 -0.0402,-0.28737 -0.069,-0.5776 -0.32041,-1.10779 -0.13075,-0.4526 -0.70261,-1.49574 -0.92819,-1.35636 -1.11354,-1.17676 -1.25578,-0.944 -1.34918,-0.6868 -1.40234,-0.39656 -1.38941,-0.0862 -1.32476,0.22702 -0.62214,0.26437 -0.24139,0.1092 -0.0244,-0.10201 -0.11782,-0.49858 -0.0776,-0.30317 11.18712,-6.5548 1.40234,-0.81899 1.73856,-1.01296 0.65519,-0.38363 v -0.009 l 2.61933,-1.53453 1.98857,-1.16958 4.41249,-2.5791 4.10645,-2.40956 0.46122,-0.26581 0.26437,0.46984 0.33622,0.58479 0.0776,0.13937 -0.30604,0.38076 -0.49858,1.06182 -0.27875,1.19112 -0.0244,0.56899 -0.0316,0.71841 0.17098,1.33337 0.39225,1.31757 0.59772,1.26297 0.009,0.007 12.12106,21.19605 3.29895,5.76742 7.72437,13.50184 v 0.007 l 2.9771,5.20705 1.41959,2.48715 0.007,0.007 0.009,0.0158 0.671,1.16239 1.6035,2.82049 5.35648,9.34798 3.38229,5.91685 v 0.006 l 0.7802,1.14803 0.9368,1.01152 0.41237,0.31323 0.63939,0.49858 1.12935,0.59341 0.10201,0.0302 1.06038,0.31897 1.15377,0.0862 0.48277,-0.079 0.046,0.079 0.98997,1.73713 -2.04173,1.20118 -3.56189,2.08196 -3.29895,1.92535 -0.0532,0.0388 -2.01156,1.17676 -2.61789,1.52878 -5.36511,3.1409 -5.30044,3.10355 -4.31766,2.5245 -0.10202,-0.0934 -0.1092,-0.10057 -0.007,-0.0158 -0.25719,-0.24138 -0.023,-0.0316 0.28736,-1.15378 0.023,-0.0862 0.0862,-1.52878 -0.1092,-0.90376 -0.079,-0.671 -0.27875,-0.96555 -0.17098,-0.60059 -0.70261,-1.48855 -0.92819,-1.35636 -1.10635,-1.17532 -0.46841,-0.35203 -0.25719,-0.19541 -1.62074,-1.56613 -0.10201,-0.0948 -5.43982,-5.24584 -3.01733,-2.91532 -1.50436,-1.44114 -0.0618,-0.0718 -1.25579,-1.20693 -2.03454,-1.95552 -1.73138,-1.66816 0.54743,2.24433 0.63795,2.65094 0.9986,4.10645 1.58194,6.54904 1.25579,5.19125 0.0776,0.31898 0.0302,0.27299 0.0718,0.62359 0.45116,1.56757 0.7098,1.48855 0.91956,1.35493 1.11354,1.1782 0.55605,0.41237 0.22415,0.17241 0.48421,0.3664 1.34774,0.67961 1.39516,0.38795 1.38797,0.0948 0.71841,-0.11782 0.0287,0.11782 0.26581,1.08336 -9.67414,5.65966 -0.10776,0.069 -1.25579,0.73278 -1.15377,0.67099 -1.04457,0.6164 -4.36508,2.55611 -0.38219,-1.59056 2.69692,-1.58195 0.49858,-0.28736 0.78163,-0.45404 1.05032,-0.80175 0.84342,-1.05319 0.61352,-1.26297 0.28162,-1.09773 0.0862,-0.32042 0.0934,-1.52734 -0.18679,-1.58338 -0.45116,-1.55896 -0.13362,-0.26437 -0.13219,-0.56899 -1.2874,-5.30188 -0.0158,-0.0546 -3.98288,-16.48757 h 0.0244 l -0.20977,-0.87215 -1.4512,-6.01024 -0.71697,-2.95411 -0.007,-0.0388 -0.0316,-0.0302 -2.05753,-1.98138 -1.81615,-1.75437 -0.0158,0.0158 -1.82477,-1.76299 -2.92394,-2.82049 -2.01874,-1.94833 -1.11354,-1.07618 -2.10495,-2.02736 -7.69563,-7.4212 -1.66672,-1.61212 -0.43679,-0.42099 z"
         inkscape:connector-curvature="0" />
      <path
         id="path269"
         style="fill:none;stroke:#0000ff"
         d="m 683.98142,528.58877 3.29033,5.78322 2.3607,4.14811 0.11064,0.19397 h 0.007 l 7.83501,13.75904 -0.009,0.009 -0.0618,0.0302 -0.60778,0.3592 -0.37501,0.21696 -0.13219,0.0776 -0.38076,-0.31035 -0.64082,-0.30461 -0.40519,-0.19541 -1.19113,-0.28736 -1.28021,-0.0474 -1.31613,0.17099 -1.31757,0.40518 -1.25578,0.60921 -0.50577,0.29599 -3.50872,2.04317 -9.21436,5.36941 -7.89536,4.60072 -0.009,0.007 -5.74443,3.34493 -11.61529,6.77319 -0.35921,0.20259 -7.11659,4.14812 -0.57042,0.33478 -0.64657,0.37357 -0.81756,0.47703 -0.046,0.0287 -1.3578,0.79743 -1.74575,1.01871 -0.8664,0.50002 -5.67259,3.31188 -0.35202,0.20403 -3.18113,1.85494 -3.94409,2.29174 -0.54599,0.31897 -0.66956,0.39082 -0.81899,0.48277 -1.15377,0.78738 -1.00578,0.95118 -0.80893,1.06756 -0.59341,1.15377 -0.35059,1.16958 -0.10201,1.16957 0.0776,0.48996 -0.0776,0.0489 -1.72994,1.00291 -7.4758,-13.13402 -0.20403,-0.36496 -0.007,0.007 -7.4758,-13.14264 -0.35777,-0.62502 0.35777,-0.20978 1.01296,-0.58478 0.25001,-0.14656 0.84197,0.68393 0.0934,0.0474 0.95261,0.45117 1.18395,0.29023 1.27877,0.046 1.32475,-0.17242 1.31757,-0.40518 0.95118,-0.46697 0.29599,-0.13937 h 0.007 l 0.82618,-0.48565 0.66237,-0.38794 0.67962,-0.398 0.71554,-0.41237 0.7802,-0.46122 0.3434,-0.19397 5.6812,-3.31188 3.53316,-2.06041 3.9369,-2.2903 1.74574,-1.02158 0.26438,-0.15662 0.0316,-0.0158 0.81037,-0.46697 0.66956,-0.38938 0.67962,-0.398 0.70979,-0.42099 0.80174,-0.45978 0.34341,-0.2026 5.97863,-3.4843 3.2271,-1.88655 7.90542,-4.59928 4.03029,-2.3449 1.71413,-1.00577 h 0.009 l 11.61385,-6.76745 7.47581,-4.35789 1.72993,-1.01296 0.30461,-0.17099 1.15377,-0.796 0.99859,-0.94974 0.81756,-1.07618 0.0158,-0.0402 0.57761,-1.09917 0.35058,-1.18395 0.0934,-1.16239 -0.15661,-1.08193 h 0.007 l 0.14942,-0.0934 0.84055,-0.49139 1.91816,3.3751 z"
         inkscape:connector-curvature="0" />
      <path
         id="path271"
         style="fill:none;stroke:#0000ff"
         d="m 384.06571,402.10217 0.23564,0.796 0.66238,2.2903 0.37357,1.29314 0.0532,0.17961 0.74859,2.61215 0.056,0.18822 0.67099,-2.3176 1.22274,-4.24582 0.046,-0.15805 0.11782,-0.26294 0.22558,-0.54743 0.38363,-1.57476 0.0532,-0.66956 0.0704,-0.25719 2.03455,-7.03901 0.56898,-1.94977 1.27159,-4.40387 0.11638,-0.27156 0.22415,-0.53881 0.38363,-1.58338 0.13219,-1.65235 -0.13219,-1.64373 -0.10202,-0.42099 -0.046,-0.20402 -0.23564,-0.95693 -0.61353,-1.45981 -0.83479,-1.27734 -1.01297,-1.05319 -1.16239,-0.77876 -1.25435,-0.47559 -0.93681,-0.11638 0.0158,-0.0546 0.24139,-0.83335 H 404.108 v -0.009 h 31.10295 v 1.37216 l -0.46697,0.17817 -0.95261,0.66381 -0.83336,0.89514 -0.68393,1.08337 -0.5072,1.23998 -0.31323,1.34918 -0.0144,0.23277 -0.0934,1.16239 v 77.99949 l 0.10776,1.39516 0.12501,0.53881 0.18822,0.80893 0.5072,1.23998 0.68393,1.08337 0.83336,0.89801 0.95261,0.66238 0.46697,0.17816 v 2.08915 h -31.10295 v -0.009 h -16.46458 l -0.0848,-0.27875 -0.0948,-0.3434 -0.0129,-0.0402 0.88796,-0.91957 0.83336,-1.27733 0.6164,-1.45838 0.38219,-1.58195 0.0848,-1.05175 0.046,-0.6006 -0.13075,-1.64516 -0.38219,-1.58194 -0.22702,-0.53738 -0.13219,-0.30461 -1.25435,-4.36507 -1.52016,-5.26165 -1.75436,-6.06484 -1.69115,-5.86369 -0.28161,-0.96554 -1.40235,4.84066 -1.17676,4.06909 -2.18397,7.56201 -1.25435,4.36364 -0.13218,0.30604 -0.22559,0.53594 -0.38363,1.58338 -0.13075,1.64373 0.13075,1.6466 0.15661,0.63939 0.22702,0.95117 0.009,0.0144 0.60634,1.44258 0.83336,1.27877 1.02159,1.05176 0.97416,0.66237 0.17961,0.11782 0.67818,0.25719 -0.0388,0.148 -0.0704,0.24138 -0.23277,0.78595 H 360.1828 l 0.45117,-1.55034 h 4.59209 l 1.30033,-0.16379 1.26297,-0.48278 1.15377,-0.78019 1.0144,-1.04314 0.84197,-1.27877 0.6164,-1.46557 0.046,-0.18678 0.33478,-1.39516 0.0244,-0.29742 0.0991,-0.35777 4.11794,-14.24181 2.19116,-7.5692 0.0129,0.007 0.26581,-0.89514 1.70839,-5.90966 0.84198,-2.92394 0.0144,-0.0388 -0.0144,-0.0388 -0.796,-2.75152 -0.70118,-2.44116 -0.023,0.009 -1.66816,-5.78322 -1.39516,-4.81768 -1.78597,-6.18266 -2.72853,-9.4385 -0.1092,-0.37501 -0.023,-0.27444 -0.1796,-0.75577 -0.19541,-0.82617 -0.42817,-1.01153 -0.0862,-0.28161 -0.0374,-0.13219 -0.22846,-0.78738 -0.40518,-1.41959 -0.28736,-0.98997 -0.17099,-0.59197 -1.63079,-5.65103 -0.10777,-0.3822 -0.023,-0.26438 -0.38219,-1.59056 -0.2888,-0.69542 -0.3276,-0.7644 -0.83336,-1.27733 -1.0144,-1.05176 -1.16095,-0.7802 -1.25579,-0.48277 -1.30894,-0.15518 h -0.57617 l -0.71698,-2.49432 h 20.32964 l 0.2026,0.69973 0.11638,0.398 0.023,0.0862 -0.71554,0.74715 -0.8348,1.28021 -0.62358,1.45694 -0.37357,1.58195 -0.0647,0.75577 -0.069,0.89083 0.13363,1.64373 0.37357,1.58338 0.23277,0.54455 0.11782,0.28881 1.27159,4.38088 0.50576,1.75436 0.73278,2.54031 0.0704,0.24282 1.59775,5.51741 0.11639,0.40518 0.007,0.17961 0.38938,1.58338 0.22846,0.53881 0.11494,0.28736 z"
         inkscape:connector-curvature="0" />
      <path
         id="path273"
         style="fill:none;stroke:#0000ff"
         d="m 103.63925,886.32951 -0.56884,-0.96699 -6.438992,-10.9601 -5.815406,-9.89254 -1.332799,-2.26156 0.06221,-0.0374 0.623582,-0.35059 0.358632,-0.21265 0.140378,-0.0776 0.36639,0.26582 0.834077,0.3434 0.163654,0.069 0.927615,0.16379 0.226012,0.0402 1.247308,-0.007 1.301908,-0.21265 1.301763,-0.42674 1.254923,-0.60059 4.170675,-2.39231 3.27395,-1.87219 1.13811,-0.65519 3.98331,-2.28455 8.57483,-4.90245 5.76081,-3.28889 11.96545,-6.85366 1.49717,-0.85491 v 0.007 l 5.49585,-3.15095 0.023,-0.0144 0.67819,-0.3822 0.2342,-0.1408 1.24716,-0.7098 0.0316,-0.0144 3.7573,-2.15237 0.18679,-0.10776 0.19397,-0.11064 4.17829,-2.39231 1.69258,-0.96842 7.00021,-4.00443 0.69399,-0.39082 0.69255,-0.40518 0.796,-0.45117 1.16095,-0.77301 1.01296,-0.90376 0.84198,-1.01296 0.0388,-0.0632 0.5776,-0.99716 0.398,-1.08337 0.13937,-1.06756 -0.0546,-0.44541 1.80178,-1.03021 5.07343,8.62383 1.57476,2.6883 0.35921,0.60777 h 0.007 l 5.07487,8.62958 1.56758,2.68111 0.36639,0.61784 5.07486,8.62813 1.56614,2.67393 0.49858,0.84917 -0.49858,0.2888 -0.85778,0.49139 -0.25719,0.14656 -0.80319,-0.58335 -1.00434,-0.41381 -0.4526,-0.0776 -0.69399,-0.12356 -1.24716,0.007 -1.18538,0.19397 -0.11638,0.0158 -1.30177,0.42961 -1.25578,0.60778 h -0.007 l -0.78738,0.45116 -0.68536,0.38938 -2.68256,1.53596 -7.187,4.11795 -5.67402,3.24866 -2.15236,1.23279 -0.0388,0.0144 h -0.007 l -0.80319,0.46841 -0.4684,0.26581 -0.2184,0.12357 -0.68536,0.38938 -0.70117,0.40662 -0.7802,0.44398 -0.50576,0.2888 -2.62796,1.50435 -0.88795,0.5072 -4.88808,2.7975 -0.86497,0.49858 -7.71001,4.41249 v -0.007 l -5.75304,3.29607 h -0.007 l -11.95841,6.84504 -1.30176,0.74859 -5.05921,2.89089 -0.63148,0.36782 -1.76169,1.00578 -0.42085,0.24139 -1.16138,0.77014 -1.02144,0.90663 -0.83394,1.01153 -0.27299,0.4526 -0.35835,0.60921 -0.0547,0.1638 1.08365,1.83914 0.74054,0.94255 0.98998,0.75577 1.21598,0.52301 0.078,0.0158 0.0155,0.009 1.27849,0.25431 1.48883,0.0244 0.0703,-0.007 1.47333,-0.22559 1.35636,-0.42099 -0.0313,-0.079 0.0547,-0.023 3.67928,-1.63654 9.22183,-4.09352 15.59099,-6.92262 10.5621,-4.68262 12.07508,-5.3651 7.6942,-3.4139 11.10809,-4.93406 0.26438,-0.11638 0.079,-0.0704 0.33478,-0.148 1.44976,-0.64657 0.79457,-0.35058 0.49139,-0.21984 2.86216,-1.26871 1.84775,-0.82043 3.09205,5.25447 -1.16095,1.14658 -1.34056,1.33194 -0.97417,0.9598 -0.91957,0.91095 -1.34918,1.32619 -1.18394,1.17676 -0.80319,0.78594 -0.1408,0.13363 -0.0374,0.046 -0.36783,0.36783 -1.86356,1.83914 -4.73865,4.68405 -8.74596,8.64537 -3.18113,3.15096 -1.82333,1.80034 -4.80187,4.74727 -4.07771,4.02886 -7.585,7.49879 -0.80318,0.79744 0.0862,0.0618 -4.31048,4.26306 -2.53312,2.50294 -0.0546,0.0546 -0.24139,0.16236 -0.11782,0.1092 -1.06756,0.97561 -0.65519,0.81037 -0.2184,0.21839 -0.49858,0.4914 -0.56898,0.56036 -0.3276,0.3276 -0.10057,0.0934 -1.20837,1.20119 -2.34634,2.31472 -1.78597,1.76155 -0.41237,0.42099 -0.2342,0.15661 -0.12501,0.1092 -1.05175,0.95118 -0.0158,0.0144 -0.97417,1.21699 -0.71697,1.27734 -0.4368,1.31757 -0.14081,1.30176 0.17099,1.21699 0.46122,1.10636 0.27156,0.45978 -1.82362,1.80034 -0.60016,-1.02014 -8.80085,-14.96741 0.64701,-0.63939 0.16365,-0.15518 0.0625,-0.0632 0.148,0.0316 0.81856,0.1638 1.48898,0.023 0.98207,-0.14799 0.56136,-0.0776 1.4341,-0.4526 0.1092,-0.0316 1.48122,-0.71698 1.36412,-0.91094 1.06009,-0.96699 0.12501,-0.11638 0.3592,-0.44542 0.20116,-0.24138 1.69976,-1.69115 2.76733,-2.72853 4.07771,-4.03029 2.26731,-2.23714 0.14943,-0.10058 1.19256,-1.0848 0.35059,-0.4526 0.1092,-0.13219 0.0776,-0.0934 0.49139,-0.49139 1.23136,-1.20837 0.73278,-0.72416 3.1955,-3.16533 1.72275,-1.69833 0.88078,-0.87359 3.19693,-3.15814 0.77876,-0.77157 4.02311,-3.98288 8.68417,-8.58216 -0.0158,-0.007 4.03029,-3.98287 0.39657,-0.39226 v -0.007 l 4.52169,-4.45847 0.20259,-0.20403 -0.84198,0.36783 -6.53181,2.89951 v 0.009 l -3.82052,1.69114 -22.95615,10.18853 -15.3338,6.81199 -9.47902,4.20271 -0.77948,0.34915 -1.04457,0.46122 -0.6391,0.42961 -0.61583,0.41237 -1.18509,1.08481 -0.97446,1.20693 -0.71697,1.27877 -0.43665,1.31757 -0.14024,1.30033 0.16366,1.22561 0.33521,0.78595 -0.1013,0.0244 -0.39757,0.1092 -0.38981,0.10058 -5.90089,-10.02473 -0.22616,-0.38795 -1.38754,-2.36357 -0.40548,0.2342 -1.94862,-3.3047 -0.53033,-0.9052 -4.53677,-7.70856 z"
         inkscape:connector-curvature="0" />
      <path
         id="path275"
         style="fill:none;stroke:#0000ff"
         d="m 641.2876,742.30358 h -2.08196 v -47.03734 h 1.87074 l 0.398,1.02158 0.66382,0.9598 0.88795,0.84773 1.08337,0.69542 1.23854,0.51438 1.34918,0.31898 1.39516,0.10201 h 77.9061 l 1.39516,-0.10201 1.34918,-0.31898 1.23135,-0.51438 0.16237,-0.11064 0.921,-0.58478 0.89514,-0.84773 0.66525,-0.9598 0.39657,-1.02158 h 1.15377 v 47.03734 h -1.37361 l -0.17673,-0.47702 -0.66525,-0.95693 -0.89514,-0.84198 -0.921,-0.5934 -0.16237,-0.10202 -1.23135,-0.51295 -1.34918,-0.32041 -1.39516,-0.10776 h -77.9061 l -0.66238,0.0532 -0.73278,0.0546 -1.34918,0.32041 -0.10919,0.0388 -1.12935,0.47415 -1.08337,0.69542 -0.88795,0.84198 -0.66382,0.95693 -0.18678,0.47702 z"
         inkscape:connector-curvature="0" />
      <path
         id="path277"
         style="fill:none;stroke:#0000ff"
         d="m 662.67761,559.62994 1.09199,-0.64082 h 0.006 l 11.60811,-6.76458 7.48442,-4.35932 0.92819,-0.54456 0.80175,-0.46841 0.29598,-0.17242 1.15521,-0.79456 1.0029,-0.95118 0.81325,-1.06756 0.59197,-1.14515 0.34915,-1.1782 0.10201,-1.16957 -0.11638,-0.75577 -0.0776,0.0474 -0.38219,-0.3046 -1.05176,-0.5072 -1.1782,-0.27875 -1.27877,-0.0546 -1.02733,0.13938 -0.29742,0.0388 -1.30895,0.398 -1.26441,0.61496 -3.78747,2.20696 -0.22702,0.12501 -9.20574,5.37085 -7.90397,4.60646 h -0.009 l -5.73725,3.34493 -11.62248,6.7732 -0.3592,0.21121 -2.8679,1.67534 -4.24008,2.47134 -0.54743,0.31897 -0.66812,0.39082 -0.82761,0.47559 -0.023,0.0158 -3.98288,2.32335 -5.68264,3.31188 -0.35203,0.20259 -3.18113,1.84776 -3.95127,2.3061 -0.54455,0.32185 -0.69399,0.39657 -0.22558,0.13219 -0.56324,0.32759 -1.15377,0.80319 -1.00577,0.95118 -0.80894,1.06756 -0.59341,1.1394 -0.35058,1.18251 -0.10058,1.16957 0.0776,0.4914 -0.0776,0.0402 -0.007,0.007 0.58478,0.47559 1.04314,0.50576 1.19256,0.28162 1.27734,0.0546 0.48565,-0.0704 0.83336,-0.1092 1.31757,-0.398 0.95836,-0.46697 0.29742,-0.14081 h 0.007 l 0.80318,-0.47559 0.66956,-0.38938 0.6868,-0.398 0.71698,-0.41955 0.78738,-0.4526 0.34196,-0.20403 5.68265,-3.31332 3.53315,-2.05754 3.93547,-2.29892 1.73712,-1.01296 0.28162,-0.16379 0.0158,-0.009 h 0.009 l 0.56036,-0.32615 0.92819,-0.54744 0.67818,-0.39656 0.13938,-0.0776 0.5776,-0.33621 0.7802,-0.45117 0.34052,-0.20259 9.2158,-5.37085 7.90541,-4.6079 4.65244,-2.71129 z"
         inkscape:connector-curvature="0" />
      <path
         id="path279"
         style="fill:none;stroke:#0000ff"
         d="m 732.79468,726.71978 -0.11494,-0.30317 -0.0618,-0.15518 -0.66525,-0.96842 -0.89514,-0.84916 -0.921,-0.58335 -0.16237,-0.10202 -1.23135,-0.51438 -1.34918,-0.31898 -1.39516,-0.11063 h -77.9061 l -1.39516,0.11063 -1.34918,0.31898 -1.23854,0.51438 -1.08337,0.68537 -0.88795,0.84916 -0.66382,0.96842 -0.0632,0.15518 -0.11638,0.30317 h -0.10058 l 0.21696,0.55318 0.0632,0.16379 0.66382,0.96842 0.88795,0.84198 1.08337,0.69255 1.23854,0.51439 1.34918,0.31897 1.39516,0.11064 h 77.9061 l 1.39516,-0.11064 1.34918,-0.31897 1.23135,-0.51439 0.16237,-0.10057 0.921,-0.59198 0.89514,-0.84198 0.66525,-0.96842 0.27875,-0.71697 h -0.10202 z"
         inkscape:connector-curvature="0" />
      <path
         id="path281"
         style="fill:none;stroke:#0000ff"
         d="m 280.60855,490.29738 0.75577,-0.12501 0.35777,-0.15517 0.44542,-0.95118 0.0532,-0.23421 0.22558,-0.95836 0.056,-1.27877 -0.17099,-1.33338 -0.37644,-1.27015 -0.0129,-0.0546 -0.60922,-1.26297 -5.54183,-9.68851 -0.2026,-0.35921 -4.05328,-7.08642 -0.056,-0.0934 -1.14515,-2.01012 -0.0172,-0.0316 -0.007,-0.009 -4.39669,-7.69276 -7.72437,-13.50185 -3.29751,-5.76885 -12.12106,-21.20323 -0.51438,-0.74859 -0.273,-0.40518 -0.93681,-1.00578 -1.05176,-0.81037 -1.12934,-0.60059 -0.70979,-0.20116 -0.0776,-0.0316 -1.31039,0.77158 -0.52156,0.30317 -0.75721,0.43679 -1.05176,0.80319 -0.59197,0.73996 -0.25719,0.31323 -0.61496,1.26153 -0.35921,1.41815 -0.0948,1.52878 0.18823,1.58338 0.45116,1.55752 0.13362,0.26581 0.13219,0.56899 0.74859,3.0863 0.53737,2.21414 1.02015,4.23289 0.056,0.22702 0.12357,1.08336 0.46122,1.57477 0.0776,0.16379 0.0388,0.0848 0.14081,0.5934 0.34197,1.41097 0.93537,3.87368 0.66237,2.73571 0.7802,3.20412 0.11638,0.5072 1.07475,4.43405 0.89083,3.6797 0.74859,0.7256 2.62508,2.52594 1.10779,1.06756 2.75296,2.65813 1.07474,1.03739 1.25579,1.20837 0.24138,0.24138 5.61081,5.40965 0.009,-0.0158 8.51319,8.21002 1.47274,1.41671 4.41968,4.2645 1.66815,1.61355 0.43823,0.421 0.1638,0.2342 1.11354,1.17676 1.25435,0.95117 1.34918,0.68537 1.06756,0.29599 0.32759,0.0934 1.39516,0.0862 0.57042,-0.0934 z"
         inkscape:connector-curvature="0" />
      <path
         id="path283"
         style="fill:none;stroke:#0000ff"
         d="m 75.124156,719.83739 -0.280612,0.0862 -0.132475,0.0374 -0.545706,0.15805 -0.771575,0.22559 -0.88882,0.26581 -0.997876,0.28736 -0.568982,0.17099 -5.643706,1.64516 -0.36639,0.1092 -0.296274,0.0244 -1.574616,0.38076 -1.465562,0.63221 -1.278344,0.84054 -1.044715,1.0302 -0.779478,1.16814 -0.140234,0.37358 -0.148137,0.39081 -0.04684,0.12501 -0.148137,0.39081 -0.155752,1.30895 0.350729,0.33478 0.249433,0.2342 1.08351,0.69399 1.239405,0.51295 1.348605,0.32185 1.395301,0.0991 h 77.906382 l 1.39516,-0.0991 1.34918,-0.32185 1.23854,-0.51295 1.08337,-0.69399 0.88939,-0.84198 0.66238,-0.96698 0.1796,-0.45978 h 0.53019 v -2.08196 l -0.1638,-1.32476 -0.48421,-1.27015 -0.77876,-1.16958 -1.04457,-1.02876 -1.27877,-0.84198 -1.45694,-0.63077 -1.58338,-0.38363 -0.29599,-0.0216 -0.36639,-0.11064 -8.65271,-2.53312 -0.75605,-0.2184 -3.25068,-0.95118 -9.11292,-2.66674 0.008,-0.0216 -0.86526,-0.25 -5.93236,-1.73713 -2.92308,-0.85922 -0.047,-0.007 -0.031,0.007 -2.7439,0.80319 -2.44002,0.71841 0.008,0.0129 -5.596864,1.63942 -0.187219,0.0532 -4.801726,1.41096 -6.174038,1.80753 -6.25177,1.82477 -3.164751,0.92819 -0.36639,0.1092 -0.296417,0.0244 -1.582232,0.38938 -1.013537,0.42818 z"
         inkscape:connector-curvature="0" />
      <path
         id="path285"
         style="fill:none;stroke:#0000ff"
         d="m 519.32269,493.94691 1.06756,0.17098 1.14659,-0.10201 0.069,-0.0158 1.09917,-0.33477 1.13079,-0.59198 1.06037,-0.81037 0.92819,-1.0144 0.78595,-1.15377 0.35202,-0.61639 0.12357,-0.21696 0.39081,-0.67819 0.30317,-0.53737 0.31179,-0.54743 3.78891,-6.61658 3.4843,-6.08926 1.36355,-2.3837 0.91238,-1.60637 0.0244,-0.0331 0.45978,-0.81036 0.38938,-0.67819 0.31898,-0.56036 0.54599,-0.94399 2.69692,-4.73147 0.85922,-1.48855 0.82618,-1.44257 9.3681,-16.38412 v -0.009 l 1.45981,-2.54174 0.22559,-0.398 8.17697,-14.29641 0.24138,-0.42099 2.05754,-3.5935 0.59341,-1.26297 0.39656,-1.32476 0.1796,-1.34199 -0.056,-1.28452 -0.27875,-1.194 -0.49139,-1.05894 -0.42099,-0.52301 -0.25719,-0.3276 v -0.007 l 0.13937,-0.24139 0.29024,-0.51582 0.14655,-0.24857 0.62359,0.37502 0.3046,0.17098 4.09352,2.40093 8.56635,5.01308 -0.64082,1.11354 -0.0374,0.0776 -0.4914,-0.0776 -1.1552,0.10202 -1.15377,0.35059 -1.13653,0.5934 -1.05176,0.81037 -0.94399,1.01296 -0.66238,0.98136 -0.12357,0.17241 -1.16957,2.04892 -10.98453,19.2161 -3.31188,5.78466 h 0.006 l -1.44831,2.5403 -6.29043,10.99172 -0.31322,0.53737 -0.23421,0.42099 -1.57476,2.74433 -0.18678,0.31898 -0.45117,0.796 -0.4138,0.72416 -0.023,0.0489 -0.55318,0.95693 -0.671,1.17819 -0.007,0.0158 -0.33478,0.59197 -0.82618,1.44114 -5.71569,9.98593 -1.87074,3.26734 -0.17961,0.31898 -0.45834,0.79456 -0.41381,0.7256 -0.38219,0.671 -0.39801,0.69255 -0.32615,0.57616 -0.13219,0.23564 -0.60922,1.27016 -0.13362,0.44397 -0.26294,0.88078 -0.17242,1.33337 0.0546,1.28596 0.28162,1.194 0.48996,1.05894 0.31179,0.38938 -0.069,0.11782 -0.26581,0.46697 -0.56036,0.98997 -0.10202,0.17242 -0.0402,0.069 -0.10058,-0.0618 -4.91825,-2.87509 -8.56779,-5.02171 0.83479,-1.45694 0.0934,-0.17098 z"
         inkscape:connector-curvature="0" />
      <path
         id="path287"
         style="fill:none;stroke:#0000ff"
         d="m 394.64506,392.52142 -0.42099,0.99716 -0.38938,1.58194 -0.0244,0.29024 -0.10201,0.35059 -3.27309,11.32505 -0.023,0.0776 -2.44117,8.46003 0.29024,1.00578 0.65376,2.25869 0.53162,1.83195 1.33194,4.61652 0.88077,3.04607 0.11782,0.4138 2.17248,7.52322 0.0244,-0.009 6.2976,21.81244 0.11064,0.37358 0.023,0.28161 0.37357,1.58195 0.20403,0.47559 0.42099,0.98853 0.83336,1.28021 1.0144,1.05176 0.85635,0.56898 0.3046,0.2026 1.01153,0.38937 0.64944,-0.45116 0.81037,-0.8664 0.023,-0.0316 0.68537,-1.08337 0.5072,-1.23998 0.18678,-0.80893 0.12644,-0.53881 0.10777,-1.39516 v -77.99949 l -0.0862,-1.16239 -0.0216,-0.23277 -0.31322,-1.34918 -0.5072,-1.23998 -0.56899,-0.89514 -0.11638,-0.18823 -0.5618,-0.60634 h -2.15236 l -0.0848,0.006 -1.22418,0.14943 -1.25435,0.48277 -1.16239,0.7802 -1.00578,1.05176 -0.84198,1.27733 -0.31897,0.7644 -0.29599,0.69542 -0.38219,1.59056 -0.0215,0.28737 -0.10202,0.35921 -2.25294,7.78615 -0.45404,1.57476 -0.0618,0.21122 -0.0848,0.29598 z"
         inkscape:connector-curvature="0" />
      <path
         id="path289"
         style="fill:none;stroke:#0000ff"
         d="m 176.68155,828.28608 0.0546,-0.0244 0.0302,-0.023 -0.56036,-0.40518 -1.00578,-0.40519 -1.14659,-0.21265 -1.25434,0.009 -1.29458,0.21984 -1.30177,0.42099 -1.25435,0.60634 h -0.009 l -0.80318,0.46122 -0.68537,0.38938 -0.67818,0.38938 -1.99575,1.14658 -3.8119,2.18111 -3.35211,1.91816 -5.69845,3.25872 -1.03595,0.59341 -0.56898,0.32615 -0.51439,0.29743 -0.0704,0.0388 h -0.009 l -0.78738,0.4526 -0.68537,0.38938 -0.67099,0.38076 -0.73279,0.42099 -0.80174,0.46122 -0.47559,0.273 -3.51591,2.01012 -4.88808,2.79893 -8.57469,4.91251 -5.76066,3.28745 -11.96574,6.84504 -1.29386,0.74858 -0.42113,0.23421 -2.91532,1.67534 -2.35424,1.34199 -1.03667,0.59197 -1.15391,0.66238 -1.16139,0.77014 -1.013392,0.91238 -0.841836,0.99716 -0.623725,1.06899 -0.389667,1.09056 -0.03894,0.29023 -0.09354,0.77158 0.07802,0.67674 0.07773,-0.046 0.366391,0.27299 1.005633,0.40519 1.145866,0.20977 1.24716,-0.007 1.30191,-0.2184 1.30952,-0.42099 0.49111,-0.24138 0.7562,-0.3664 1.45005,-0.83479 2.72048,-1.55896 2.09705,-1.19112 6.29846,-3.60931 8.58259,-4.9125 5.7529,-3.28746 11.96646,-6.84504 1.49573,-0.85778 h 0.009 l 2.89951,-1.66959 1.73856,-0.98854 0.84198,-0.48421 1.37216,-0.78738 0.82618,-0.46697 0.007,-0.009 4.1553,-2.37651 5.87662,-3.36073 4.2961,-2.46272 2.68112,-1.53596 0.023,-0.0158 0.69399,-0.38938 0.648,-0.37357 0.83336,-0.47703 1.16096,-0.77014 0.32759,-0.2888 0.68681,-0.6164 0.84198,-1.00434 0.62358,-1.07043 0.38938,-1.08337 0.14081,-1.06756 -0.0546,-0.44254 z"
         inkscape:connector-curvature="0" />
      <path
         id="path291"
         style="fill:none;stroke:#0000ff"
         d="m 183.68894,840.21173 0.0546,-0.0302 0.0316,-0.0158 -0.5618,-0.40519 -1.00577,-0.41236 -1.14515,-0.21266 -1.21699,0.009 h -0.0302 l -1.30176,0.21696 -1.30176,0.42099 -1.25579,0.60921 v 0.007 l -0.83336,0.47559 -1.069,0.60922 -0.0848,0.046 -0.1796,0.10057 -0.71698,0.41381 -0.796,0.46122 -0.48277,0.27156 -7.17982,4.10788 -5.68264,3.25154 -2.18972,1.25435 -0.8348,0.47559 -0.65519,0.37501 -0.68537,0.38938 -1.99575,1.14515 -2.26012,1.29601 -1.25579,0.71554 -4.88664,2.7975 -8.57555,4.90388 -5.7529,3.29896 h -0.008 l -11.96574,6.84216 -1.294,0.74858 -2.73615,1.5604 -2.9544,1.69114 -0.54556,0.31035 -1.64488,0.944 -1.15377,0.77301 -0.28837,0.25719 -0.73278,0.64657 -0.83422,1.00578 -0.63134,1.06756 -0.37415,1.04314 -0.0157,0.0402 -0.11696,0.93681 -0.0155,0.13075 0.0155,0.13937 0.0625,0.53881 0.0858,-0.046 0.35849,0.26438 1.00549,0.40518 1.15391,0.21122 0.45203,-0.009 h 0.79528 l 1.30162,-0.21696 0.57703,-0.18822 0.72488,-0.23277 1.25506,-0.60921 3.81176,-2.18254 0.13247,-0.0704 0.2184,-0.13075 8.40327,-4.80331 8.57483,-4.90963 5.76009,-3.29895 11.09373,-6.34358 0.86497,-0.49858 1.49717,-0.85922 h 0.007 l 2.89952,-1.65954 2.58053,-1.47274 0.71698,-0.41525 0.65519,-0.37357 0.82618,-0.47415 h 0.007 l 2.10495,-1.20119 2.05035,-1.1782 5.87805,-3.36648 6.98441,-3.9915 0.0474,-0.0316 1.30895,-0.74858 0.83336,-0.47416 1.03739,-0.69542 0.125,-0.0848 1.01296,-0.9052 0.84198,-1.00578 0.4368,-0.73996 0.18678,-0.31898 0.38938,-1.09199 0.14081,-1.05894 -0.0546,-0.44541 z"
         inkscape:connector-curvature="0" />
      <path
         id="path293"
         style="fill:none;stroke:#0000ff"
         d="m 732.79468,711.14459 -0.11494,-0.30317 -0.0618,-0.16379 -0.66525,-0.95693 -0.89514,-0.84342 -0.921,-0.59197 -0.16237,-0.1092 -1.23135,-0.51582 -1.34918,-0.31035 -1.39516,-0.11064 h -77.9061 l -1.39516,0.11064 -1.34918,0.31035 -1.23854,0.51582 -1.08337,0.70117 -0.88795,0.84342 -0.66382,0.95693 -0.0632,0.16379 -0.12356,0.30317 h -0.0934 l 0.28018,0.71842 0.66382,0.95836 0.88795,0.84916 1.08337,0.69542 1.23854,0.51439 1.34918,0.31179 1.39516,0.10776 h 77.9061 l 1.39516,-0.10776 1.34918,-0.31179 1.23135,-0.51439 0.16237,-0.11063 0.921,-0.58479 0.89514,-0.84916 0.66525,-0.95836 0.27156,-0.71842 h -0.0948 z"
         inkscape:connector-curvature="0" />
      <path
         id="path295"
         style="fill:none;stroke:#0000ff"
         d="m 419.81536,374.07833 -0.31179,0.11639 -0.15518,0.0618 -0.95261,0.66381 -0.83193,0.89514 -0.22701,0.35203 -0.45979,0.73134 -0.5072,1.23998 -0.31035,1.34918 -0.0244,0.23277 -0.0862,1.16239 v 77.99949 l 0.11064,1.39516 0.12357,0.53881 0.18678,0.80893 0.5072,1.23998 0.6868,1.08337 0.83193,0.89801 0.95261,0.66238 0.15518,0.0618 0.31179,0.11638 v 0.10202 l 0.70261,-0.28018 0.95118,-0.66238 0.84054,-0.89801 0.67818,-1.08337 0.51438,-1.23998 0.18823,-0.80893 0.12356,-0.53881 0.10202,-1.39516 v -77.99949 l -0.0862,-1.16239 -0.0158,-0.23277 -0.31179,-1.34918 -0.51438,-1.23998 -0.67818,-1.08337 -0.84054,-0.89514 -0.95118,-0.66381 -0.70261,-0.273 v 0.0948 z"
         inkscape:connector-curvature="0" />
      <path
         id="path297"
         style="fill:none;stroke:#0000ff"
         d="m 621.52934,717.77229 a 226.77166,226.77166 0 1 0 -453.54331,0 226.77166,226.77166 0 1 0 453.54331,0 z"
         inkscape:connector-curvature="0" />
      <path
         id="path299"
         style="fill:none;stroke:#000000"
         d="m 772.98919,712.11536 a 377.95276,377.95276 0 1 0 -755.905508,0 377.95276,377.95276 0 1 0 755.905508,0 z"
         inkscape:connector-curvature="0" />
      <path
         id="path301"
         style="fill:none;stroke:#000000"
         d="m 427.26162,717.77229 a 32.503937,32.503937 0 1 0 -65.00787,0 32.503937,32.503937 0 1 0 65.00787,0 z"
         inkscape:connector-curvature="0" />
    </g>
  </g>
</svg>
